<svg width="71" height="57" viewBox="0 0 71 57" fill="none" xmlns="http://www.w3.org/2000/svg">
    <path fill-rule="evenodd" clip-rule="evenodd" d="M65.25 4H5.75C4.7835 4 4 4.7835 4 5.75V51.25C4 52.2165 4.7835 53 5.75 53H65.25C66.2165 53 67 52.2165 67 51.25V5.75C67 4.7835 66.2165 4 65.25 4ZM5.75 0.5C2.85051 0.5 0.5 2.85051 0.5 5.75V51.25C0.5 54.1495 2.8505 56.5 5.75 56.5H65.25C68.1495 56.5 70.5 54.1495 70.5 51.25V5.75C70.5 2.85051 68.1495 0.5 65.25 0.5H5.75Z" fill="#C4C4C4" />
    <circle cx="16.25" cy="13.625" r="3.5" fill="#C4C4C4" />
    <path d="M9.25 47.7491V32.3132L17.4053 25.2818C19.3661 23.5912 22.2665 23.5824 24.2375 25.261L29.875 30.0621L44.0635 14.7188C46.28 12.3219 50.1235 12.5077 52.0984 15.1073L61.75 27.811V47.7491H9.25Z" fill="#C4C4C4" />
</svg>